<svg id="Camada_1" data-name="Camada 1" xmlns="http://www.w3.org/2000/svg" viewBox="0 0 1000 1000"><defs><style>.cls-1{fill:#d5944b;}.cls-2{fill:#443017;}</style></defs><title>cookie</title><path class="cls-1" d="M500,999.5A499.88,499.88,0,0,1,21.82,355.19c15.9,13.5,38.13,17.2,61.42,20.07l60.45,7.44c5.08.62,9.67,1.18,14.26,1.67a250.4,250.4,0,0,0,27.28,1.71,131.77,131.77,0,0,0,23.06-1.88A93.67,93.67,0,0,0,223,380.38c17.32-6.06,30.94-16.79,38.36-30.22l.24-.44c.95-1.73,1.94-3.51,3.55-4.47a6.9,6.9,0,0,1,3.6-.84,23.59,23.59,0,0,1,3.37.31l33.81,4.88a115.83,115.83,0,0,0,16.51,1.5c8.79,0,15.67-1.89,21-5.79,12.41-9,13.07-24.43,13.76-40.76.55-13.11,1.13-26.67,8.27-36.8,6.43-9.12,17.06-13.8,27.35-18.32a140.91,140.91,0,0,0,14.77-7.2c21.65-12.73,34.87-39.06,32.16-64-.23-2-.55-4.12-.86-6.12a60.49,60.49,0,0,1-1.1-13c.52-8.83,4.86-17,9.06-24.82.78-1.44,1.55-2.89,2.29-4.33a135.35,135.35,0,0,0,12.67-35.24,101.49,101.49,0,0,0,1.31-34.38A83.92,83.92,0,0,0,460,46.86c-5.61-17.81-16.51-32.45-30.76-41.39A504.83,504.83,0,0,1,500,.5,499.64,499.64,0,0,1,694.43,960.25,496.5,496.5,0,0,1,500,999.5Z"/><path d="M500,1A499.13,499.13,0,0,1,694.23,959.79,499.35,499.35,0,0,1,22.08,356.06c16,13.19,38,16.85,61.1,19.69l60.45,7.44c5.06.62,9.63,1.18,14.26,1.67a249.18,249.18,0,0,0,27.34,1.72,131.63,131.63,0,0,0,23.14-1.89,92.91,92.91,0,0,0,14.76-3.84c17.43-6.09,31.15-16.91,38.62-30.44L262,350c.92-1.67,1.87-3.39,3.37-4.28a6.43,6.43,0,0,1,3.34-.77,22.88,22.88,0,0,1,3.3.31l33.81,4.88a118.05,118.05,0,0,0,16.58,1.5c8.9,0,15.88-1.93,21.32-5.88,12.6-9.15,13.29-25.42,14-41.15.55-13,1.12-26.52,8.18-36.53,6.34-9,16.45-13.45,27.14-18.16a141.94,141.94,0,0,0,14.83-7.22c21.81-12.82,35.13-39.35,32.39-64.52-.22-2-.55-4.13-.86-6.13a61,61,0,0,1-1.09-12.85c.51-8.72,4.83-16.8,9-24.61.76-1.42,1.55-2.89,2.3-4.34a136.19,136.19,0,0,0,12.71-35.37,102,102,0,0,0,1.31-34.55,83,83,0,0,0-3.08-13.58c-5.49-17.44-16-31.87-29.82-40.93A504.74,504.74,0,0,1,500,1m0-1a503.51,503.51,0,0,0-72.16,5.17c15.31,9.15,26.3,24.64,31.72,41.84a81.88,81.88,0,0,1,3,13.42,101.1,101.1,0,0,1-1.3,34.21,135.37,135.37,0,0,1-12.62,35.11c-4.86,9.4-10.79,18.79-11.41,29.35-.38,6.42,1.26,12.76,2,19.15,2.71,24.91-10.31,50.85-31.91,63.55-14.37,8.46-32.67,12-42.28,25.66-15.92,22.59.45,61.21-21.91,77.45-6,4.35-13.23,5.69-20.73,5.69A116.81,116.81,0,0,1,306,349.11l-33.81-4.88a24.58,24.58,0,0,0-3.44-.32,7.43,7.43,0,0,0-3.85.91c-1.88,1.11-2.92,3.19-4,5.1-8,14.51-22.27,24.46-38.08,30a93.58,93.58,0,0,1-14.6,3.8,132,132,0,0,1-23,1.87A254,254,0,0,1,158,383.87c-4.76-.51-9.52-1.09-14.25-1.67L83.3,374.76c-21.84-2.69-45.38-6.18-61.74-20.45A499.88,499.88,0,0,0,0,500c0,276.14,223.86,500,500,500s500-223.86,500-500S776.14,0,500,0Z"/><path class="cls-2" d="M223,383.5a32.5,32.5,0,0,1-65,.37c16.77,1.81,33.65,2.76,50.2-.16a93.58,93.58,0,0,0,14.6-3.8A32.8,32.8,0,0,1,223,383.5Z"/><circle class="cls-2" cx="527" cy="422" r="27"/><circle class="cls-2" cx="591.5" cy="596.5" r="18.5"/><circle class="cls-2" cx="332.5" cy="613.5" r="17.5"/><circle class="cls-2" cx="508" cy="253" r="34"/><circle class="cls-2" cx="699" cy="362" r="21"/><circle class="cls-2" cx="683" cy="152" r="37"/><circle class="cls-2" cx="773.5" cy="660.5" r="64.5"/><circle class="cls-2" cx="433.5" cy="799.5" r="22.5"/><circle class="cls-2" cx="186.5" cy="760.5" r="16.5"/><circle class="cls-2" cx="132" cy="580" r="26"/><circle class="cls-2" cx="417.5" cy="519.5" r="19.5"/><circle class="cls-2" cx="615" cy="849" r="24"/><circle class="cls-2" cx="878" cy="436" r="20"/><path class="cls-2" d="M495,70.5a25.49,25.49,0,0,1-33.7,24.14,101.1,101.1,0,0,0,1.3-34.21,81.88,81.88,0,0,0-3-13.42A25.51,25.51,0,0,1,495,70.5Z"/><ellipse class="cls-2" cx="464.5" cy="925" rx="15.5" ry="16"/></svg>