<svg id="Camada_1" data-name="Camada 1" xmlns="http://www.w3.org/2000/svg" viewBox="0 0 839.6 739.03"><defs><style>.cls-1{fill:#f5f5f5;}.cls-2,.cls-3,.cls-4{fill:#d81e5b;isolation:isolate;}.cls-2{opacity:0.7;}.cls-3{opacity:0.4;}.cls-4{opacity:0.9;}.cls-5{fill:#a07555;}</style></defs><title>homeimg</title><path class="cls-1" d="M150,242"/><path class="cls-1" d="M81,398c1.4-56.56,13.13-123.92,65-176,14.27-14.33,54.28-49.93,128-60,30.86-42.14,76.37-89.63,130.11-88.15C447.52,75.06,478.47,100.35,510,141c128,165,475,65,262,270S587,866,405,665c-54.45-60.14-86.54-67.46-107.27-59.84C262.14,618.24,280,694,238,710c-27.33,10.4-77.62-5.5-87.83-8.88l-1.32-.44C124.22,692,112.93,662.21,105,635c-14.71-50.48-17.86-92-18-94C81.38,461.12,80.42,421.31,81,398Z"/><circle class="cls-1" cx="88" cy="62" r="62"/><circle class="cls-1" cx="719.5" cy="644.5" r="23.5"/><circle class="cls-2" cx="170" cy="98" r="36"/><circle class="cls-3" cx="40.5" cy="676.5" r="40.5"/><path class="cls-4" d="M289.08,212H549.91A40.09,40.09,0,0,1,590,252.09h0V512.92A40.07,40.07,0,0,1,549.94,553H289.09A40.09,40.09,0,0,1,249,512.91h0V252.08A40.07,40.07,0,0,1,289.06,212Z"/><rect class="cls-5" x="359" y="212" width="134" height="43" rx="7.08"/></svg>