<svg id="Camada_1" data-name="Camada 1" xmlns="http://www.w3.org/2000/svg" viewBox="0 0 415 415"><defs><style>.cls-1{fill:#f5f5f5;}.cls-2{fill:#fff;}.cls-3{fill:#d81e5b;}.cls-4{fill:#8e5b2e;}</style></defs><title>logoweb</title><circle class="cls-1" cx="207.5" cy="207.5" r="207"/><path class="cls-2" d="M319.5,33a206.55,206.55,0,0,1,80.38,396.77A206.55,206.55,0,0,1,239.12,49.23,205.17,205.17,0,0,1,319.5,33m0-1C204.9,32,112,124.9,112,239.5S204.9,447,319.5,447,527,354.1,527,239.5,434.1,32,319.5,32Z" transform="translate(-112 -32)"/><rect class="cls-3" x="132.5" y="132.5" width="150" height="150" rx="17.61"/><path class="cls-2" d="M376.89,165A17.14,17.14,0,0,1,394,182.11V296.89A17.14,17.14,0,0,1,376.89,314H262.11A17.14,17.14,0,0,1,245,296.89V182.11A17.14,17.14,0,0,1,262.11,165H376.89m0-1H262.11A18.11,18.11,0,0,0,244,182.11V296.89A18.11,18.11,0,0,0,262.11,315H376.89A18.11,18.11,0,0,0,395,296.89V182.11A18.11,18.11,0,0,0,376.89,164Z" transform="translate(-112 -32)"/><rect class="cls-4" x="178" y="132" width="59" height="19" rx="3.11"/></svg>